<?xml version="1.0" encoding="UTF-8" standalone="no"?>
<svg
   xmlns:dc="http://purl.org/dc/elements/1.1/"
   xmlns:cc="http://creativecommons.org/ns#"
   xmlns:rdf="http://www.w3.org/1999/02/22-rdf-syntax-ns#"
   xmlns:svg="http://www.w3.org/2000/svg"
   xmlns="http://www.w3.org/2000/svg"
   xmlns:sodipodi="http://sodipodi.sourceforge.net/DTD/sodipodi-0.dtd"
   xmlns:inkscape="http://www.inkscape.org/namespaces/inkscape"
   viewBox="0 0 108 108"
   id="vector"
   version="1.1"
   sodipodi:docname="launcher_foreground.svg"
   inkscape:version="0.92.4 (5da689c313, 2019-01-14)">
  <metadata
     id="metadata10">
    <rdf:RDF>
      <cc:Work
         rdf:about="">
        <dc:format>image/svg+xml</dc:format>
        <dc:type
           rdf:resource="http://purl.org/dc/dcmitype/StillImage" />
      </cc:Work>
    </rdf:RDF>
  </metadata>
  <defs
     id="defs8" />
  <sodipodi:namedview
     pagecolor="#ffffff"
     bordercolor="#666666"
     borderopacity="1"
     objecttolerance="10"
     gridtolerance="10"
     guidetolerance="10"
     inkscape:pageopacity="0"
     inkscape:pageshadow="2"
     inkscape:window-width="1858"
     inkscape:window-height="1177"
     id="namedview6"
     showgrid="false"
     inkscape:zoom="9.3333333"
     inkscape:cx="16.5"
     inkscape:cy="54"
     inkscape:window-x="1974"
     inkscape:window-y="-8"
     inkscape:window-maximized="1"
     inkscape:current-layer="g96" />
  <g
     id="group"
     transform="translate(14.58 14.58) scale(0.39029703 0.39029703)">
    <path
       id="path"
       d="M 101.531 37.512 L 101.79 37.581 L 156.931 54.123 C 158.607 54.625 159.774 56.127 159.861 57.859 L 159.866 58.067 L 159.866 60.389 L 141.796 64.991 C 141.669 65.023 141.55 65.081 141.446 65.159 L 141.347 65.245 L 101.072 105.123 C 100.717 105.475 100.161 105.501 99.776 105.202 L 99.684 105.12 L 77.145 82.592 C 76.79 82.237 76.232 82.21 75.845 82.51 L 75.753 82.592 L 66.454 91.886 L 66.453 91.886 L 66.372 91.979 C 66.096 92.333 66.097 92.831 66.372 93.185 L 66.454 93.278 L 99.68 126.488 C 100.035 126.843 100.593 126.87 100.98 126.57 L 101.073 126.488 L 159.866 67.722 L 159.866 118.721 C 159.866 125.098 157.78 131.596 153.654 138.098 C 152.158 137.58 150.601 137.192 148.997 136.945 L 148.997 136.945 L 149.286 131.048 L 149.519 131.06 L 149.691 131.065 C 151.106 131.053 152.193 129.911 152.259 128.565 C 152.33 127.106 151.22 125.858 149.779 125.778 L 149.779 125.778 L 144.092 125.46 L 143.927 125.456 L 143.764 125.462 C 142.469 125.554 141.419 126.609 141.353 127.956 C 141.281 129.415 142.392 130.663 143.833 130.743 L 143.833 130.743 L 144.066 130.756 L 143.777 136.658 C 140.567 136.791 137.504 137.488 134.683 138.654 L 134.683 138.654 L 132.072 133.486 L 132.28 133.379 L 132.43 133.296 C 133.603 132.593 134.044 131.076 133.412 129.824 C 132.754 128.521 131.179 127.999 129.895 128.659 L 129.895 128.659 L 124.829 131.261 L 124.678 131.345 C 123.506 132.048 123.064 133.565 123.697 134.816 C 124.328 136.067 125.88 136.668 127.214 135.982 L 127.214 135.982 L 127.422 135.875 L 130.07 141.115 C 127.409 142.889 125.084 145.127 123.209 147.713 L 123.209 147.713 L 118.117 144.773 L 118.234 144.571 L 118.315 144.419 C 118.92 143.194 118.477 141.693 117.277 141.001 C 116.028 140.279 114.429 140.707 113.707 141.957 L 113.707 141.957 L 110.86 146.889 L 110.779 147.04 C 110.174 148.265 110.617 149.766 111.817 150.459 C 113.067 151.181 114.665 150.752 115.387 149.502 L 115.387 149.502 L 115.504 149.3 L 120.569 152.224 C 119.497 154.554 118.749 157.063 118.383 159.695 L 118.383 159.695 L 112.379 159.505 L 112.388 159.272 L 112.389 159.106 C 112.355 157.738 111.248 156.62 109.845 156.576 C 108.384 156.53 107.157 157.662 107.101 159.105 L 107.101 159.105 L 106.883 164.796 L 106.882 164.962 C 106.916 166.33 108.023 167.448 109.427 167.492 C 110.835 167.537 112.113 166.456 112.17 164.963 L 112.17 164.963 L 112.179 164.73 L 118.17 164.919 C 118.245 166.269 118.42 167.592 118.687 168.881 C 113.763 171.838 109.44 174.121 106.467 175.612 L 106.017 175.837 C 103.822 176.929 102.462 177.542 102.289 177.62 C 101.754 177.86 101.18 177.979 100.606 177.979 C 100.032 177.979 99.458 177.859 98.923 177.62 C 98.75 177.542 97.39 176.929 95.195 175.837 L 94.744 175.612 C 89.519 172.991 80.119 167.922 70.62 161.047 C 62.304 155.028 55.648 148.863 50.838 142.724 C 44.673 134.857 41.482 126.954 41.349 119.225 L 41.345 118.721 L 41.345 58.067 C 41.345 56.319 42.448 54.769 44.081 54.188 L 44.28 54.123 L 99.422 37.581 C 100.109 37.375 100.835 37.352 101.531 37.512 Z"
       fill="#065fc4" />
    <path
       id="path_1"
       d="M 101.531 37.512 L 101.79 37.581 L 156.931 54.123 C 158.607 54.625 159.774 56.127 159.861 57.859 L 159.866 58.067 L 159.866 60.389 L 141.796 64.991 C 141.669 65.023 141.55 65.081 141.446 65.159 L 141.347 65.245 L 101.072 105.123 C 100.717 105.475 100.161 105.501 99.776 105.202 L 99.684 105.12 L 77.145 82.592 C 76.79 82.237 76.232 82.21 75.845 82.51 L 75.753 82.592 L 66.454 91.886 L 66.453 91.886 L 66.372 91.979 C 66.096 92.333 66.097 92.831 66.372 93.185 L 66.454 93.278 L 99.68 126.488 C 100.035 126.843 100.593 126.87 100.98 126.57 L 101.073 126.488 L 159.866 67.722 L 159.866 118.721 C 159.866 125.098 157.78 131.596 153.654 138.098 C 152.158 137.58 150.601 137.192 148.997 136.945 L 148.997 136.945 L 149.286 131.048 L 149.519 131.06 L 149.691 131.065 C 151.106 131.053 152.193 129.911 152.259 128.565 C 152.33 127.106 151.22 125.858 149.779 125.778 L 149.779 125.778 L 144.092 125.46 L 143.927 125.456 L 143.764 125.462 C 142.469 125.554 141.419 126.609 141.353 127.956 C 141.281 129.415 142.392 130.663 143.833 130.743 L 143.833 130.743 L 144.066 130.756 L 143.777 136.658 C 140.567 136.791 137.504 137.488 134.683 138.654 L 134.683 138.654 L 132.072 133.486 L 132.28 133.379 L 132.43 133.296 C 133.603 132.593 134.044 131.076 133.412 129.824 C 132.754 128.521 131.179 127.999 129.895 128.659 L 129.895 128.659 L 124.829 131.261 L 124.678 131.345 C 123.506 132.048 123.064 133.565 123.697 134.816 C 124.328 136.067 125.88 136.668 127.214 135.982 L 127.214 135.982 L 127.422 135.875 L 130.07 141.115 C 127.409 142.889 125.084 145.127 123.209 147.713 L 123.209 147.713 L 118.117 144.773 L 118.234 144.571 L 118.315 144.419 C 118.92 143.194 118.477 141.693 117.277 141.001 C 116.028 140.279 114.429 140.707 113.707 141.957 L 113.707 141.957 L 110.86 146.889 L 110.779 147.04 C 110.174 148.265 110.617 149.766 111.817 150.459 C 113.067 151.181 114.665 150.752 115.387 149.502 L 115.387 149.502 L 115.504 149.3 L 120.569 152.224 C 119.497 154.554 118.749 157.063 118.383 159.695 L 118.383 159.695 L 112.379 159.505 L 112.388 159.272 L 112.389 159.106 C 112.355 157.738 111.248 156.62 109.845 156.576 C 108.384 156.53 107.157 157.662 107.101 159.105 L 107.101 159.105 L 106.883 164.796 L 106.882 164.962 C 106.916 166.33 108.023 167.448 109.427 167.492 C 110.835 167.537 112.113 166.456 112.17 164.963 L 112.17 164.963 L 112.179 164.73 L 118.17 164.919 C 118.245 166.269 118.42 167.592 118.687 168.881 C 113.763 171.838 109.44 174.121 106.467 175.612 L 106.017 175.837 C 103.822 176.929 102.462 177.542 102.289 177.62 C 101.754 177.86 101.18 177.979 100.606 177.979 C 100.032 177.979 99.458 177.859 98.923 177.62 C 98.75 177.542 97.39 176.929 95.195 175.837 L 94.744 175.612 C 89.519 172.991 80.119 167.922 70.62 161.047 C 62.304 155.028 55.648 148.863 50.838 142.724 C 44.673 134.857 41.482 126.954 41.349 119.225 L 41.345 118.721 L 41.345 58.067 C 41.345 56.319 42.448 54.769 44.081 54.188 L 44.28 54.123 L 99.422 37.581 C 100.109 37.375 100.835 37.352 101.531 37.512 Z"
       fill="none"
       fill-opacity="0.24" />
  </g>
  <style
     id="style2"
     type="text/css">
	.st0{fill:#3C3C3B;}
	.st1{fill:#E20613;}
	.st2{fill:#FFDC00;}
	.st3{fill:#4E0B4B;}
	.st4{fill:#1D70B7;}
	.st5{fill:#F49B00;}
	.st6{fill:#800F00;}
	.st7{fill:#F8B133;}
	.st8{fill:#C2390B;}
</style>
  <g
     transform="matrix(0.2323068,0,0,0.2323068,27.39221,53.72432)"
     id="g96"
     style="fill:#444444;fill-opacity:1">
    <g
       id="g897">
      <path
         class="st2"
         d="m 52.55,84.69 c 5.16,-9.1 10.93,-16.21 16.03,-21.48 -7.46,3.56 -15.32,8.41 -22.8,14.99 2.09,2.2 4.34,4.37 6.77,6.49 z"
         id="path56"
         inkscape:connector-curvature="0"
         style="fill:#444444;fill-opacity:1" />
      <path
         class="st3"
         d="m 113.4,73.55 c -0.19,-0.71 -0.46,-1.4 -0.82,-2.05 -1.99,-3.62 -6.04,-5.19 -10.57,-4.89 -0.04,0 -0.04,0 -0.2,0.01 0,-0.12 0,-0.29 0,-0.42 v -1.49 c 0,-0.66 0.01,-1.52 -0.82,-1.56 l -9.36,-0.02 c -1.4,3.63 -2.91,7.08 -4.52,10.34 3.71,4.77 6.77,9.63 9.31,14.42 0.18,-0.34 0.37,-0.69 0.55,-1.04 0.33,-0.66 0.64,-1.32 0.94,-2 0.62,-1.4 1.17,-2.84 1.64,-4.32 0.03,-0.08 0.05,-0.16 0.08,-0.24 0.04,-0.14 0.09,-0.27 0.13,-0.41 0.57,-1.85 1.02,-3.75 1.36,-5.69 0.16,-0.91 0.29,-1.83 0.39,-2.76 2.5,-0.27 5.61,0.65 6.7,2.64 0.43,0.79 0.68,1.81 0.74,2.72 0.16,2.25 -1.15,5.33 -2.89,7.54 -0.6,0.76 -1.3,1.49 -2.09,2.17 -0.32,0.27 -0.65,0.53 -0.99,0.77 -0.21,0.15 -0.42,0.3 -0.64,0.44 -0.09,0.06 -0.18,0.12 -0.27,0.17 -0.53,0.33 -1.06,0.62 -1.6,0.87 -0.11,0.05 -0.22,0.11 -0.33,0.15 -0.85,0.38 -1.71,0.67 -2.55,0.87 -0.06,0.02 -0.11,0.02 -0.17,0.04 0.7,1.39 1.36,2.78 1.97,4.15 1.28,-0.45 2.57,-1.02 3.83,-1.74 0.31,-0.18 0.63,-0.36 0.94,-0.56 0.56,-0.35 1.11,-0.73 1.63,-1.12 1.23,-0.91 2.21,-1.91 3.19,-2.97 0.47,-0.51 0.91,-1.03 1.32,-1.56 1.93,-2.51 2.87,-5.33 3.27,-7.97 0.11,-0.7 0.16,-1.4 0.14,-2.08 0.01,-0.79 -0.1,-1.62 -0.31,-2.41 z"
         id="path58"
         inkscape:connector-curvature="0"
         style="fill:#444444;fill-opacity:1" />
      <path
         class="st4"
         d="m 68.27,98.11 c -5.67,-3.19 -10.7,-6.7 -15.15,-10.39 -3.15,5.83 -5.98,12.38 -8.22,19.68 0.07,0.4 0.23,0.67 0.46,0.87 0.53,0.44 1.44,0.46 2.47,0.46 h 4.39 4.7 0.31 c 3.71,-3.08 7.43,-6.6 11.04,-10.62 z"
         id="path60"
         inkscape:connector-curvature="0"
         style="fill:#444444;fill-opacity:1" />
      <path
         class="st5"
         d="M 84.83,73.72 C 81.94,70.1 78.68,66.54 74.98,63.11 L 71.52,63.1 c -5.84,5.8 -12.06,13.34 -17.45,22.87 4.53,3.78 9.68,7.38 15.51,10.63 5.5,-6.34 10.72,-13.9 15.25,-22.88 z"
         id="path62"
         inkscape:connector-curvature="0"
         style="fill:#444444;fill-opacity:1" />
      <path
         class="st6"
         d="M 43.02,78.07 C 38.45,73.05 34.74,67.93 31.73,63.04 l -5.69,-0.01 c -0.95,0 -1.07,1.11 -1.07,1.68 v 1.49 c 0,0.88 0.03,1.76 0.07,2.63 0.08,1.47 0.23,2.93 0.45,4.36 0.42,2.79 1.08,5.48 1.97,8.07 0.59,1.74 1.29,3.42 2.07,5.05 0.44,0.9 0.9,1.79 1.39,2.66 0.27,0.47 0.55,0.92 0.83,1.37 3.6,-4.63 7.39,-8.7 11.27,-12.27 z"
         id="path64"
         inkscape:connector-curvature="0"
         style="fill:#444444;fill-opacity:1" />
      <path
         class="st1"
         d="m 64.32,63.1 -30.3,-0.05 c 2.83,4.48 6.27,9.14 10.44,13.72 6.64,-5.86 13.47,-10.3 19.86,-13.67 z"
         id="path66"
         inkscape:connector-curvature="0"
         style="fill:#444444;fill-opacity:1" />
      <path
         class="st7"
         d="m 95.36,90.04 c -0.05,0 -0.09,0 -0.14,0 0.02,-0.04 0.05,-0.08 0.07,-0.13 -2.47,-4.8 -5.47,-9.69 -9.14,-14.5 -4.43,8.62 -9.49,15.94 -14.83,22.15 3.72,1.99 7.73,3.83 12.01,5.5 0.28,-0.33 0.58,-0.64 0.93,-0.9 0.28,-0.21 0.56,-0.43 0.83,-0.64 0.61,-0.48 1.2,-0.98 1.78,-1.49 0.43,-0.38 0.86,-0.77 1.28,-1.17 1.22,-1.17 2.37,-2.42 3.45,-3.73 0.06,-0.07 0.12,-0.15 0.18,-0.22 1.48,0.18 2.6,0.23 4.23,-0.04 0.28,-0.05 0.57,-0.1 0.86,-0.16 0.22,-0.05 0.44,-0.1 0.66,-0.16 -0.67,-1.49 -1.39,-3 -2.17,-4.51 z"
         id="path68"
         inkscape:connector-curvature="0"
         style="fill:#444444;fill-opacity:1" />
      <path
         class="st1"
         d="m 70.01,99.07 c -3.2,3.6 -6.49,6.8 -9.79,9.66 h 0.08 6.04 3.74 5.68 0.54 0.55 2.11 c 1.19,0 2.21,-0.02 2.68,-0.7 0.18,-0.25 0.28,-0.59 0.28,-1.06 0,-0.01 0,-0.01 0,-0.02 v -0.01 c 0,-0.66 0.11,-1.3 0.3,-1.9 0.03,-0.09 0.07,-0.18 0.11,-0.27 -4.39,-1.73 -8.49,-3.64 -12.32,-5.7 z"
         id="path70"
         inkscape:connector-curvature="0"
         style="fill:#444444;fill-opacity:1" />
      <path
         class="st4"
         d="M 89.55,63.14 77.83,63.12 c 2.92,2.82 5.56,5.73 7.96,8.67 1.32,-2.75 2.57,-5.64 3.76,-8.65 z"
         id="path72"
         inkscape:connector-curvature="0"
         style="fill:#444444;fill-opacity:1" />
      <path
         class="st8"
         d="m 42.27,101.97 c 0.08,0.06 0.17,0.13 0.25,0.19 0.6,0.45 1.11,1.02 1.49,1.66 2.17,-6.43 4.77,-12.23 7.58,-17.41 -2.62,-2.26 -5.03,-4.58 -7.25,-6.92 -3.98,3.65 -7.84,7.81 -11.46,12.55 0.25,0.37 0.5,0.75 0.76,1.11 0.98,1.34 2.03,2.62 3.15,3.83 1.17,1.27 2.41,2.46 3.71,3.57 0.58,0.5 1.17,0.97 1.77,1.42 z"
         id="path74"
         inkscape:connector-curvature="0"
         style="fill:#444444;fill-opacity:1" />
      <path
         class="st8"
         d="m 51.6,110.39 h -5.9 -1.68 c -0.45,1.63 -0.87,3.29 -1.26,4.99 h 1.58 3.94 c 2.27,-1.5 4.57,-3.17 6.89,-4.99 z"
         id="path78"
         inkscape:connector-curvature="0"
         style="fill:#444444;fill-opacity:1" />
      <path
         class="st6"
         d="m 40.77,115.39 c 0.38,-1.7 0.8,-3.37 1.24,-4.99 H 39.66 38.5 37.26 32.31 26.83 v 0.25 c 0,0.44 0.06,0.86 0.18,1.26 0.25,0.89 0.74,1.67 1.41,2.27 0.56,0.5 1.24,0.87 1.99,1.06 0.29,0.07 0.58,0.12 0.89,0.14 0.1,0.01 0.19,0.01 0.29,0.01 h 6.39 1.48 z"
         id="path80"
         inkscape:connector-curvature="0"
         style="fill:#444444;fill-opacity:1" />
      <path
         class="st3"
         d="M 97.41,110.39 H 89.67 87.16 82.5 79.18 75.21 73.19 72.21 71.62 66.47 60.4 58.26 c -2.19,1.81 -4.38,3.47 -6.55,4.99 h 7.92 0.49 3.48 5.01 1 6.64 1.48 5.75 1.66 5.08 0.63 2.85 0.96 c 2.62,0 4.74,-2.12 4.74,-4.74 v -0.25 h -1 z"
         id="path82"
         inkscape:connector-curvature="0"
         style="fill:#444444;fill-opacity:1" />
      <path
         class="st1"
         d="m 72.93,59.84 c 0.89,-0.25 1.47,-1.17 1.62,-1.66 0.24,-0.83 0.45,-1.8 -0.13,-2.8 -0.17,-0.3 -0.4,-0.56 -0.7,-0.85 -0.6,-0.57 -1.53,-1.16 -2.54,-1.73 -0.52,-0.27 -1.05,-0.55 -1.61,-0.83 -0.28,-0.13 -0.57,-0.26 -0.85,-0.4 l -1.07,-0.53 c -1.49,-0.8 -3.04,-1.94 -4.14,-3.78 -0.54,-0.91 -0.9,-2.03 -0.96,-3.16 -0.03,-1.14 0.23,-2.25 0.71,-3.16 0.96,-1.83 2.6,-2.97 4.34,-3.41 0.87,-0.22 1.81,-0.22 2.65,0.05 0.84,0.26 1.54,0.83 1.89,1.51 -1.6,-0.57 -2.72,0.08 -3.52,0.82 -0.81,0.75 -1.17,1.69 -1.24,2.48 -0.04,0.77 0.25,1.46 0.66,1.88 0.48,0.51 1.29,1.07 2.3,1.54 l 0.83,0.38 c 0.36,0.16 0.71,0.32 1.05,0.51 l 1.04,0.58 c 0.35,0.22 0.68,0.43 1.02,0.67 1.34,0.96 2.67,2.17 3.59,3.99 0.44,0.91 0.74,2 0.67,3.11 -0.07,1.1 -0.47,2.14 -1.07,2.89 -0.59,0.77 -1.32,1.3 -2.1,1.65 -0.39,0.17 -0.8,0.3 -1.21,0.36 -0.41,0.06 -0.87,0.09 -1.23,-0.11 z"
         id="path90"
         inkscape:connector-curvature="0"
         style="fill:#444444;fill-opacity:1" />
      <path
         class="st8"
         d="m 55.63,22.13 c 1.04,-0.24 2.14,-0.33 3.26,-0.2 1.12,0.13 2.29,0.49 3.4,1.21 1.09,0.74 2.09,1.91 2.6,3.27 0.27,0.68 0.44,1.34 0.53,2.07 0.09,0.72 0.1,1.48 -0.02,2.21 -0.2,1.49 -0.79,2.82 -1.45,3.93 -0.66,1.11 -1.42,2.03 -2.15,2.86 -0.73,0.83 -1.47,1.54 -2.14,2.24 -0.69,0.67 -1.33,1.31 -1.87,1.92 -0.57,0.59 -1.02,1.17 -1.37,1.7 -0.37,0.54 -0.55,0.96 -0.74,1.53 -0.35,1.14 -0.37,2.36 0,3.44 0.26,0.89 1.37,2.58 2.69,3.37 0.74,0.45 1.5,0.88 2.41,1.24 0.92,0.35 1.85,0.68 3.13,0.71 -1.91,0.97 -4.04,1.51 -6.38,1.38 -1.17,-0.08 -2.39,-0.34 -3.58,-0.89 -1.19,-0.55 -2.33,-1.42 -3.23,-2.54 -0.45,-0.56 -0.82,-1.17 -1.15,-1.82 -0.31,-0.65 -0.54,-1.33 -0.72,-2.02 -0.35,-1.38 -0.39,-2.8 -0.21,-4.2 0.17,-1.39 0.72,-2.85 1.36,-4.03 0.67,-1.18 1.45,-2.17 2.22,-3.04 0.8,-0.85 1.59,-1.59 2.35,-2.28 l 2.18,-1.86 c 0.69,-0.57 1.26,-1.13 1.77,-1.63 0.47,-0.51 0.85,-0.97 1.1,-1.43 0.12,-0.23 0.24,-0.47 0.31,-0.75 0.09,-0.27 0.11,-0.6 0.15,-0.88 0.05,-0.58 0.03,-1.16 -0.29,-1.82 -0.33,-0.65 -0.8,-1.43 -1.51,-2.05 -0.73,-0.59 -1.63,-1.32 -2.65,-1.64 z"
         id="path92"
         inkscape:connector-curvature="0"
         style="fill:#444444;fill-opacity:1" />
    </g>
  </g>
</svg>
